# xmcd CD database file generated by LOLA_Freedb v0.9beta0
# 
# Track frame offsets:
#      150
#      27096
#      48393
#      66309
#      86502
#      106822
#      128266
# 
# Disc length: 2239 seconds
# 
# Revision: 0 
# Processed by: cddbd v1.5.2PL0 Copyright (c) Steve Scherf et al.
# Submitted via: LOLA_Freedb v0.9beta0
# 
DISCID=4d08bd07
DTITLE=Syl Johnson - Uptowm Shakedown
DYEAR=1978
DGENRE=
TTITLE0=Mystery Lady
TTITLE1=Let's Dance For Love
TTITLE2=Gimme Little Sign
TTITLE3=You're The Star Of The Show
TTITLE4=Blue Water
TTITLE5=Who's Gonna Love You
TTITLE6=Otis Redding Medley
EXTD=
EXTT0=
EXTT1=
EXTT2=
EXTT3=
EXTT4=
EXTT5=
EXTT6=
PLAYORDER=
